<svg width="30" height="30" viewBox="0 0 30 30" fill="none" xmlns="http://www.w3.org/2000/svg">
<path d="M20.8163 2.44898C22.6025 2.44898 24.3155 3.15853 25.5785 4.42153C26.8415 5.68453 27.551 7.39752 27.551 9.18367V20.8163C27.551 22.6025 26.8415 24.3155 25.5785 25.5785C24.3155 26.8415 22.6025 27.551 20.8163 27.551H9.18367C7.39752 27.551 5.68453 26.8415 4.42153 25.5785C3.15853 24.3155 2.44898 22.6025 2.44898 20.8163V9.18367C2.44898 7.39752 3.15853 5.68453 4.42153 4.42153C5.68453 3.15853 7.39752 2.44898 9.18367 2.44898H20.8163ZM20.8163 0H9.18367C6.75025 0.00726762 4.41856 0.977164 2.69786 2.69786C0.977164 4.41856 0.00726762 6.75025 0 9.18367V20.8163C0.00726762 23.2498 0.977164 25.5814 2.69786 27.3021C4.41856 29.0228 6.75025 29.9927 9.18367 30H20.8163C23.2498 29.9927 25.5814 29.0228 27.3021 27.3021C29.0228 25.5814 29.9927 23.2498 30 20.8163V9.18367C29.9927 6.75025 29.0228 4.41856 27.3021 2.69786C25.5814 0.977164 23.2498 0.00726762 20.8163 0Z" fill="black"/>
<path d="M23.0021 5.2041C22.6552 5.2041 22.3161 5.30698 22.0276 5.49972C21.7392 5.69246 21.5143 5.96641 21.3816 6.28693C21.2488 6.60744 21.2141 6.96013 21.2818 7.30039C21.3494 7.64065 21.5165 7.95319 21.7618 8.19851C22.0071 8.44382 22.3197 8.61088 22.6599 8.67856C23.0002 8.74624 23.3529 8.71151 23.6734 8.57874C23.9939 8.44598 24.2679 8.22116 24.4606 7.9327C24.6533 7.64424 24.7562 7.30511 24.7562 6.95818C24.7562 6.72783 24.7108 6.49974 24.6227 6.28693C24.5345 6.07411 24.4053 5.88074 24.2425 5.71786C24.0796 5.55498 23.8862 5.42577 23.6734 5.33762C23.4606 5.24947 23.2325 5.2041 23.0021 5.2041Z" fill="black"/>
<path d="M15.0827 9.63356C16.1534 9.63296 17.2003 9.94994 18.0908 10.5444C18.9813 11.1389 19.6755 11.9841 20.0855 12.9732C20.4955 13.9623 20.6029 15.0508 20.3942 16.1009C20.1855 17.1511 19.6699 18.1157 18.9128 18.8728C18.1557 19.6299 17.1911 20.1455 16.1409 20.3542C15.0908 20.5629 14.0023 20.4555 13.0132 20.0455C12.0241 19.6355 11.1789 18.9413 10.5844 18.0508C9.98993 17.1603 9.67295 16.1134 9.67355 15.0427C9.67598 13.6089 10.2467 12.2345 11.2605 11.2206C12.2744 10.2067 13.6489 9.63599 15.0827 9.63356ZM15.0827 7.18459C13.5285 7.18761 12.01 7.65131 10.7191 8.51709C9.42831 9.38286 8.4231 10.6119 7.83054 12.0487C7.23798 13.4856 7.08467 15.0659 7.38997 16.5899C7.69527 18.1139 8.44549 19.5132 9.54581 20.611C10.6461 21.7088 12.0472 22.4557 13.5719 22.7575C15.0966 23.0592 16.6765 22.9022 18.1121 22.3063C19.5476 21.7104 20.7742 20.7023 21.637 19.4094C22.4997 18.1166 22.9599 16.597 22.9593 15.0427C22.9589 14.0094 22.7547 12.9862 22.3585 12.0318C21.9623 11.0774 21.3818 10.2104 20.6503 9.48058C19.9187 8.75073 19.0504 8.17227 18.0951 7.77829C17.1398 7.38432 16.1161 7.18257 15.0827 7.18459Z" fill="black"/>
</svg>
