<svg width="100" height="48" viewBox="0 0 100 48" fill="none" xmlns="http://www.w3.org/2000/svg">
<path d="M2.26398 19.439H0V0H2.26398V8.94195H11.129V0H13.3929V19.439H11.129V9.21965H2.26398V19.439Z" fill="white"/>
<path d="M26.9122 19.439C25.6757 19.439 24.8301 19.1984 24.3755 18.717C23.9573 18.3097 23.7481 17.958 23.7481 17.6617V17.0786C22.8571 18.7263 21.4296 19.5501 19.4657 19.5501C17.1744 19.5501 15.8742 18.4948 15.5651 16.3843C15.5287 16.1622 15.5105 15.94 15.5105 15.7178C15.5105 15.4772 15.5469 15.218 15.6196 14.9403C15.6924 14.6626 15.9015 14.3571 16.247 14.0239C16.938 13.3574 18.4564 12.9501 20.8022 12.802C21.3841 12.7464 21.9206 12.7187 22.4116 12.7187C22.9025 12.7187 23.3481 12.7372 23.7481 12.7742V8.16439C23.7118 8.14588 23.7118 8.06257 23.7481 7.91446C23.7845 7.74784 23.7481 7.54419 23.639 7.30352C23.5481 7.04433 23.4208 6.7944 23.2571 6.55373C23.0935 6.31306 22.8025 6.10941 22.3843 5.94279C21.966 5.75765 21.4205 5.66509 20.7477 5.66509C20.0748 5.66509 19.2838 5.79468 18.3746 6.05387C17.4835 6.29454 16.8289 6.53522 16.4107 6.77589L16.3015 6.5815C17.92 5.82245 19.5657 5.44293 21.2387 5.44293C23.1117 5.44293 24.3482 5.78543 24.9483 6.47042C25.4211 7.00731 25.6575 7.57196 25.6575 8.16439V17.4674C25.6575 18.0042 25.7575 18.4208 25.9576 18.717C26.1758 18.9947 26.394 19.1428 26.6122 19.1613L26.9122 19.2169H27.7578V19.439H26.9122ZM19.9021 19.3279C20.8659 19.3279 21.7296 18.9947 22.4934 18.3282C23.2753 17.6432 23.6936 16.986 23.7481 16.3566V12.9964C23.2571 12.9594 22.7571 12.9408 22.2479 12.9408C21.7569 12.9408 21.2659 12.9686 20.775 13.0241C19.3929 13.1908 18.4928 13.5055 18.0745 13.9683C17.6563 14.4312 17.4472 15.0699 17.4472 15.8845C17.4472 16.0326 17.4563 16.1992 17.4744 16.3843C17.6381 18.3467 18.4473 19.3279 19.9021 19.3279Z" fill="white"/>
<path d="M34.2725 6.74812V6.16495C33.4542 6.49819 32.7086 7.17393 32.0358 8.19216C31.363 9.19188 31.0084 10.1361 30.972 11.0247V19.439H29.0626V5.55401H30.972V9.96944C31.263 8.89567 31.8176 7.88669 32.6359 6.94251C33.4542 5.97981 34.3816 5.47995 35.4181 5.44293H35.5273C35.8909 5.44293 36.191 5.57252 36.4274 5.83171C36.682 6.07238 36.8093 6.37785 36.8093 6.74812C36.8093 7.11839 36.682 7.42386 36.4274 7.66453C36.191 7.9052 35.8909 8.02554 35.5273 8.02554C35.1636 8.02554 34.8635 7.9052 34.6271 7.66453C34.3907 7.42386 34.2725 7.11839 34.2725 6.74812Z" fill="white"/>
<path d="M55.1172 8.74756C55.1172 7.61825 54.9717 6.82217 54.6807 6.35934C54.3898 5.8965 53.8351 5.66509 53.0168 5.66509C51.9258 5.66509 50.9529 6.12792 50.0982 7.05359C49.2617 7.97926 48.8435 8.81236 48.8435 9.55289V19.439H46.9341V8.74756C46.9341 7.61825 46.7886 6.82217 46.4977 6.35934C46.2067 5.8965 45.5884 5.66509 44.6428 5.66509C43.6972 5.66509 42.7971 6.10941 41.9424 6.99805C41.1059 7.88669 40.6513 8.71054 40.5786 9.46958V19.439H38.6692V5.55401H40.5786V8.69202C40.8695 7.89595 41.406 7.15541 42.1879 6.47042C42.9699 5.78543 43.8427 5.44293 44.8065 5.44293C45.7703 5.44293 46.534 5.53549 47.0978 5.72063C47.6797 5.88725 48.0888 6.15569 48.3252 6.52596C48.5616 6.89623 48.7071 7.22021 48.7616 7.49791C48.8162 7.77561 48.8435 8.16439 48.8435 8.66425C49.1344 7.86818 49.6618 7.1369 50.4255 6.47042C51.1893 5.78543 52.0076 5.44293 52.8805 5.44293C53.7533 5.44293 54.4534 5.51698 54.9808 5.66509C55.5081 5.81319 55.8991 5.97981 56.1537 6.16495C56.4264 6.35008 56.6265 6.61853 56.7538 6.97028C56.8992 7.32203 56.9811 7.60899 56.9993 7.83115C57.0174 8.05331 57.0265 8.36804 57.0265 8.77533V17.4674C57.0265 18.0042 57.1266 18.4208 57.3266 18.717C57.5448 18.9947 57.763 19.1428 57.9812 19.1613L58.2813 19.2169H59.1269V19.439H57.463C56.7174 19.439 56.1446 19.2724 55.7445 18.9392C55.3626 18.6059 55.1626 18.2727 55.1444 17.9394L55.1172 17.4674V8.74756Z" fill="white"/>
<path d="M65.9282 19.5501C64.0188 19.5501 62.464 18.9947 61.2638 17.8839C60.0636 16.7731 59.4636 15.0606 59.4636 12.7464C59.4636 10.4323 60.0818 8.63648 61.3184 7.35906C62.5731 6.08164 64.1552 5.44293 66.0646 5.44293C67.9921 5.44293 69.556 5.99833 70.7562 7.10913C71.9564 8.21993 72.5564 9.93242 72.5564 12.2466C72.5564 14.5608 71.9291 16.3566 70.6743 17.634C69.4378 18.9114 67.8557 19.5501 65.9282 19.5501ZM66.1191 5.66509C64.7371 5.66509 63.5914 6.29454 62.6822 7.55345C61.773 8.79385 61.3184 10.5341 61.3184 12.7742C61.3184 14.9958 61.7366 16.6435 62.5731 17.7173C63.4096 18.7911 64.5189 19.3279 65.9009 19.3279C67.2829 19.3279 68.4285 18.7077 69.3378 17.4674C70.247 16.2084 70.7016 14.4682 70.7016 12.2466C70.7016 10.0065 70.2834 8.34952 69.4469 7.27575C68.6104 6.20198 67.5011 5.66509 66.1191 5.66509Z" fill="white"/>
<path d="M85.318 19.439C84.5724 19.439 83.9996 19.2724 83.5995 18.9392C83.2176 18.6059 83.0176 18.2727 82.9994 17.9394L82.9722 17.4674V8.74756C82.9722 7.28501 82.5994 6.35008 81.8538 5.94279C81.4719 5.75765 80.9991 5.66509 80.4354 5.66509C79.2716 5.66509 78.226 6.13718 77.2986 7.08136C76.3712 8.00703 75.9074 8.84013 75.9074 9.58066V19.439H73.9981V5.55401H75.9074V8.71979C76.2166 7.92372 76.7894 7.18318 77.6259 6.49819C78.4624 5.79468 79.3807 5.44293 80.3808 5.44293C81.381 5.44293 82.1902 5.54475 82.8085 5.7484C83.4449 5.93353 83.9087 6.20198 84.1996 6.55373C84.6542 7.12764 84.8815 7.86818 84.8815 8.77533V17.4674C84.8815 18.0042 84.9815 18.4208 85.1816 18.717C85.3998 18.9947 85.618 19.1428 85.8362 19.1613L86.1363 19.2169H86.9818V19.439H85.318Z" fill="white"/>
<path d="M91.5147 24.4099C90.9328 25.7243 90.2145 26.3815 89.3598 26.3815C88.978 26.3815 88.5324 26.3167 88.0233 26.1871V25.965C88.4415 26.0761 88.8143 26.1316 89.1416 26.1316C90.069 26.1316 90.7782 25.5577 91.2692 24.4099L93.5605 19.439H93.5332L88.4597 5.55401H90.3691L94.597 17.1341L98.7704 8.33101C98.9886 7.94223 99.0977 7.4794 99.0977 6.94251C99.0977 6.40562 98.9522 5.99833 98.6612 5.72063L98.8249 5.55401C98.8977 5.59103 98.9886 5.70211 99.0977 5.88725C99.225 6.07238 99.2977 6.239 99.3159 6.38711C99.3523 6.53522 99.3704 6.67407 99.3704 6.80366C99.3704 7.30352 99.2613 7.81264 99.0431 8.33101L93.806 19.439L91.5147 24.4099Z" fill="white"/>
<path d="M77.6353 29.0338C76.4094 28.5596 75.2508 28.3225 74.1595 28.3225C73.0817 28.3225 72.2397 28.5529 71.6335 29.0135C71.0272 29.4741 70.7241 30.1109 70.7241 30.9238C70.7241 31.9127 71.236 32.6782 72.2599 33.2201C72.718 33.4504 73.2165 33.6672 73.7553 33.8704C74.3077 34.0601 74.8601 34.2769 75.4124 34.5207C75.9648 34.7646 76.47 35.0423 76.928 35.3539C77.3861 35.6655 77.7566 36.0991 78.0395 36.6545C78.3224 37.1964 78.4639 37.8942 78.4639 38.7477C78.4639 39.5877 78.2281 40.3057 77.7566 40.9018C77.2851 41.4979 76.7125 41.9044 76.0389 42.1211C75.3787 42.3243 74.6041 42.426 73.7149 42.426C72.0578 42.426 70.6433 42.0127 69.4712 41.1863L69.5722 41.0237C70.0168 41.376 70.5894 41.6673 71.2899 41.8976C72.004 42.1143 72.7315 42.2227 73.4724 42.2227C74.5637 42.2227 75.4933 41.9721 76.2612 41.4708C77.0426 40.956 77.4332 40.2041 77.4332 39.2151C77.4332 38.1313 76.9213 37.2845 75.8974 36.6749C75.4394 36.4039 74.9342 36.1533 74.3818 35.9229C73.8429 35.6926 73.2973 35.4555 72.7449 35.2117C72.1926 34.9543 71.6874 34.6698 71.2293 34.3582C70.2054 33.6808 69.6935 32.7189 69.6935 31.4724C69.6935 30.4834 70.0236 29.6841 70.6837 29.0745C71.3438 28.4513 72.334 28.1396 73.6543 28.1396C74.988 28.1396 76.342 28.37 77.7162 28.8306L77.6353 29.0338Z" fill="white"/>
<path d="M80.0292 32.2447H81.4438V34.7646C81.6728 34.1414 82.0972 33.5521 82.7169 32.9966C83.3366 32.4411 84.0372 32.1634 84.8186 32.1634C87.5534 32.1634 88.9209 33.7756 88.9209 37C88.9209 40.6579 87.156 42.4869 83.6263 42.4869C82.9931 42.4869 82.2656 42.3379 81.4438 42.0398V47.4861H80.0292V32.2447ZM84.7984 32.326C83.9631 32.326 83.2087 32.6918 82.535 33.4233C81.8614 34.1414 81.4977 34.7917 81.4438 35.3742V41.8569C82.2656 42.1685 82.9864 42.3243 83.6061 42.3243C86.2062 42.3243 87.5063 40.5428 87.5063 36.9797C87.5063 33.8772 86.6036 32.326 84.7984 32.326Z" fill="white"/>
<path d="M98.7438 42.4056C97.8277 42.4056 97.2012 42.2295 96.8644 41.8773C96.5546 41.5792 96.3997 41.3218 96.3997 41.105V40.6783C95.7395 41.884 94.6819 42.4869 93.227 42.4869C91.5295 42.4869 90.5662 41.7147 90.3372 40.1702C90.3102 40.0076 90.2968 39.8451 90.2968 39.6825C90.2968 39.5064 90.3237 39.3167 90.3776 39.1135C90.4315 38.9103 90.5864 38.6867 90.8424 38.4429C91.3543 37.9551 92.4792 37.6571 94.2172 37.5487C94.6483 37.508 95.0457 37.4877 95.4094 37.4877C95.7732 37.4877 96.1033 37.5013 96.3997 37.5284V34.1549C96.3727 34.1414 96.3727 34.0804 96.3997 33.972C96.4266 33.8501 96.3997 33.7011 96.3188 33.525C96.2515 33.3353 96.1572 33.1524 96.0359 32.9763C95.9147 32.8001 95.6991 32.6511 95.3892 32.5292C95.0794 32.3937 94.6752 32.326 94.1767 32.326C93.6783 32.326 93.0922 32.4208 92.4186 32.6105C91.7585 32.7866 91.2735 32.9627 90.9636 33.1388L90.8828 32.9966C92.0818 32.4411 93.3011 32.1634 94.5405 32.1634C95.9281 32.1634 96.8442 32.414 97.2888 32.9153C97.6391 33.3082 97.8142 33.7214 97.8142 34.1549V40.9628C97.8142 41.3557 97.8883 41.6605 98.0365 41.8773C98.1982 42.0805 98.3599 42.1889 98.5215 42.2024L98.7438 42.2431H99.3703V42.4056H98.7438ZM93.5503 42.3243C94.2643 42.3243 94.9042 42.0805 95.4701 41.5928C96.0494 41.0915 96.3592 40.6105 96.3997 40.1499V37.6909C96.0359 37.6638 95.6654 37.6503 95.2882 37.6503C94.9244 37.6503 94.5607 37.6706 94.1969 37.7113C93.1731 37.8332 92.5062 38.0635 92.1963 38.4022C91.8865 38.7409 91.7315 39.2083 91.7315 39.8044C91.7315 39.9128 91.7383 40.0347 91.7518 40.1702C91.873 41.6063 92.4725 42.3243 93.5503 42.3243Z" fill="white"/>
</svg>
