<svg width="180" height="100" viewBox="0 0 180 100" fill="none" xmlns="http://www.w3.org/2000/svg">
<path d="M45.979 0.303937C38.1979 1.28912 33.5116 2.89653 26.3052 6.99282C19.5853 10.8299 14.501 15.5484 9.50527 22.6521C3.62526 30.9483 0 41.9928 0 51.4816C0 64.8076 5.12843 77.7705 13.4842 85.8076C16.2695 88.4521 21.1769 92.2372 21.7957 92.2372C22.4147 92.2372 22.0168 91.8225 17.021 86.7928C13.9705 83.7854 12.3347 81.6076 10.08 77.615C5.0842 68.9039 3.40422 60.4003 4.33264 48.8892C4.86316 42.5114 7.1179 35.667 10.7874 29.2372C13.1305 25.141 21.1769 14.978 22.061 14.978C22.2821 14.978 23.7852 13.941 25.3326 12.6447C31.1684 7.87431 38.8611 4.71135 48.2779 3.31135C56.2799 2.0669 64.1052 3.20764 71.6211 6.68171C72.9032 7.25209 74.0526 7.66691 74.1411 7.51135C74.539 7.04469 69.6316 4.08913 66.3158 2.79282C60.1263 0.35579 52.6547 -0.525692 45.979 0.303937Z" fill="white"/>
<path d="M74.4948 21.5631C69.9411 22.3409 57.9158 25.6593 54.3791 27.1111C36.1201 34.7333 26.9685 44.1187 25.1117 57.2371C24.8906 58.9482 24.8023 61.7482 24.9349 63.4593C25.1558 66.052 25.0675 66.4149 24.6253 65.5333C23.918 64.1333 23.918 50.7038 24.6696 47.8C25.2884 45.3111 25.3769 45.2076 28.7812 42.6667C30.1958 41.5778 31.7874 39.8149 32.5832 38.4149C34.617 34.7853 34.9706 29.0816 33.0254 30.9482C32.7158 31.2593 31.4338 31.8816 30.1517 32.3482C25.2002 34.2667 23.2107 36.8593 23.299 41.3187C23.3433 42.926 23.078 45.4667 22.7243 46.9705C22.2823 48.7853 22.0611 52.1556 22.0611 57.0298C22.0611 65.1187 22.1053 65.0667 19.6738 59.5705C18.038 55.9409 16.977 54.5409 14.9433 53.2965C13.3517 52.3631 9.28433 51.8965 9.28433 52.6742C9.28433 52.9333 10.1685 54.1778 11.1854 55.526C12.7327 57.4445 13.6612 58.1705 15.8275 58.8965C18.0822 59.6742 18.5685 60.0371 18.7896 61.126C19.0106 62.2667 22.1938 68.5927 25.4211 74.2965C26.0842 75.4889 25.4211 75.0222 22.3264 72.326C17.7285 68.2816 17.0654 67.8149 12.777 66C9.68222 64.7038 8.26748 64.7038 9.94749 66.052C11.6275 67.4 12.8654 69.1631 14.8549 72.9482C15.9159 75.0222 17.3749 77.3038 18.038 78.0298C20.4696 80.6742 26.9244 83.4222 30.5937 83.4222C32.4064 83.4222 32.5832 83.1631 31.6548 81.9187C30.4611 80.3631 28.2948 74.6594 27.6317 71.2371C26.1286 63.7705 27.4549 54.3853 30.5496 50.1333L31.7874 48.4222V50.7556C31.7874 52.052 31.6106 55.9927 31.3895 59.5187C31.0801 64.2889 30.7707 66.2076 30.2402 66.9333C29.5327 67.8149 29.577 67.8667 32.539 67.8149C34.7938 67.8149 35.3243 67.6593 34.617 67.3482C33.6886 66.9333 33.6001 66.5187 33.6001 63.3038C33.6001 56.3038 34.0421 55.6298 37.4023 57.2889C38.5516 57.8593 39.7896 58.0149 41.2042 57.8593L43.3263 57.5482L43.0611 60.7631C42.6632 66.2076 42.4423 67.2445 41.6465 67.5038C41.2486 67.6593 42.2653 67.7631 43.9012 67.8149C46.6421 67.8667 46.8633 67.8149 46.2442 67.0371C45.4485 66.1038 45.3602 63.4593 45.9348 54.6965C46.2442 50.4445 46.5095 48.8371 47.04 48.4222C48.2337 47.3333 47.8358 47.126 44.7853 47.126C42.177 47.1778 41.8674 47.2298 42.5749 47.852C43.1496 48.3705 43.3263 49.3038 43.3263 51.6371C43.3263 55.7853 42.9284 56.1482 39.038 55.5778C37.4023 55.3705 35.5454 55.2149 34.9706 55.2149C33.9538 55.2667 33.9538 55.2149 34.1748 51.8965C34.3074 49.5631 34.617 48.2667 35.1032 47.852C35.7663 47.3333 35.6337 47.1778 34.1748 46.7631L32.4949 46.2965L34.9264 43.4965C42.3979 34.8371 55.0864 27.8889 71.4001 23.5333C78.2528 21.6668 79.8444 20.6816 74.4948 21.5631Z" fill="white"/>
<path d="M136.168 47.5911C135.063 47.954 135.063 47.954 136.08 48.2651C136.743 48.4727 137.053 48.9911 137.053 49.8207C137.097 51.3762 135.152 59.5689 134.798 59.5689C134.621 59.5689 133.958 58.0133 133.25 56.0429C130.554 48.4727 129.669 47.3318 127.415 48.4207C126.751 48.7318 126.796 48.8356 127.68 49.2505C128.21 49.5096 128.785 50.1318 128.962 50.5985C130.554 56.0429 131.924 59.5689 132.852 60.7096C133.472 61.4873 133.958 62.3689 133.958 62.68C133.958 63.8207 131.217 67.9689 129.846 68.954L128.432 69.9393H130.023C132.499 69.9393 133.869 67.3985 135.903 59.3096C138.025 50.8578 138.467 49.4578 139.396 48.2651L140.28 47.1245L138.777 47.1762C137.937 47.2282 136.787 47.3838 136.168 47.5911Z" fill="white"/>
<path d="M118.396 48.6284C114.726 48.9913 114.107 49.3024 114.903 50.4433C115.522 51.2729 115.389 60.71 114.77 62.2656C114.461 63.0951 114.682 63.1989 116.583 63.1989C119.059 63.1989 119.678 62.784 118.617 61.9024C118.042 61.384 117.865 60.0878 117.688 55.5247L117.467 49.8211L119.545 49.458C123.347 48.784 124.541 50.858 124.143 57.7544C124.01 60.2951 123.745 61.2802 123.126 61.9024C122.33 62.5767 122.463 62.6284 125.027 62.6802C127.592 62.6802 128.564 62.11 127.105 61.4358C126.575 61.2284 126.442 60.1913 126.442 56.7691C126.442 54.3322 126.265 51.7913 126 51.0656C125.602 49.7691 123.436 48.11 122.375 48.2656C122.065 48.3173 120.253 48.4729 118.396 48.6284Z" fill="white"/>
<path d="M104.248 50.8071C102.17 52.0516 101.242 54.1256 101.242 57.3404C101.242 63.1998 105.53 66.2589 110.482 63.9256C115.434 61.5922 116.008 53.296 111.41 50.496C109.642 49.4071 106.238 49.5627 104.248 50.8071ZM110.659 51.7922C111.455 52.5182 111.897 53.5553 112.118 55.2144C112.693 59.8293 110.703 63.7182 107.785 63.7182C104.735 63.7182 103.231 61.1256 103.541 56.3033C103.718 53.7109 103.939 52.9849 104.956 51.9478C106.503 50.3922 109.067 50.3404 110.659 51.7922Z" fill="white"/>
<path d="M68.8799 50.5996C66.7137 50.7031 64.9895 50.9107 64.9895 51.0662C64.9895 51.2218 65.2989 51.7402 65.6968 52.1551C66.2715 52.8291 66.3599 54.0218 66.2273 58.5847C66.0947 63.4587 65.962 64.2885 65.2104 64.9625C64.4146 65.6885 64.5472 65.7402 67.3325 65.792C70.1178 65.792 71.1347 65.2736 69.6316 64.5476C69.0567 64.2884 68.9684 63.1996 69.0567 57.9107L69.1894 51.5329L71.7978 51.3773C74.539 51.2218 75.7326 51.844 74.8042 52.9329C73.7873 54.1253 74.1852 54.9551 75.7326 54.7996C76.9263 54.644 77.1472 54.4364 77.2799 53.0884C77.501 51.1698 76.4399 50.1847 74.3178 50.3402C73.4336 50.392 71.002 50.5476 68.8799 50.5996Z" fill="white"/>
<path d="M80.905 50.7558C78.6946 50.9633 77.8545 51.1707 78.385 51.4818C79.0482 51.8447 79.1367 52.7262 79.1367 58.0669C79.1367 63.3558 79.0482 64.2373 78.385 64.704C77.103 65.5335 77.9871 65.8447 80.5956 65.4818C83.0271 65.1707 83.0715 65.1189 82.4524 64.03C81.9661 63.2522 81.7893 61.4373 81.7893 57.1335V51.2744H84.2208C87.8903 51.2744 88.4209 52.1558 88.4209 57.9633C88.4209 61.8002 88.2882 62.7335 87.4924 63.9262L86.6082 65.2744H89.2608C91.7808 65.2744 93.063 64.6522 91.7808 64.0818C91.2946 63.8744 91.0735 62.4744 90.9409 58.6891C90.8524 55.8891 90.6314 53.0891 90.4545 52.4151C90.1009 51.3262 90.1451 51.2744 93.1956 51.2744C97.0861 51.2744 97.263 51.5335 97.263 58.0669C97.263 61.8002 97.0861 63.0447 96.5114 63.8224C95.8482 64.704 95.8924 64.7558 98.2797 64.7558C99.6945 64.7558 100.8 64.4967 100.8 64.2373C100.8 63.9262 100.623 63.7189 100.358 63.7189C100.092 63.7189 99.9157 61.904 99.9157 59.3633C99.9157 50.4447 99.7387 50.2373 90.5871 50.3929C87.0945 50.4447 82.7177 50.6002 80.905 50.7558Z" fill="white"/>
<path d="M53.0524 51.3242C50.6209 52.4651 49.6925 54.5909 51.063 55.9391C51.4167 56.2502 52.0799 56.4058 52.6104 56.1985C53.3618 55.9391 53.4945 55.5762 53.2735 54.3836C53.0524 53.2429 53.1851 52.7762 53.8924 52.3613C55.0861 51.5836 57.5619 51.6353 58.5345 52.4651C59.8166 53.554 58.9324 54.6429 55.7492 55.8353C54.0693 56.4576 51.9029 57.702 50.8862 58.5318C49.3387 59.8798 49.0735 60.3465 49.0735 61.954C49.0735 63.302 49.4272 64.1836 50.3998 65.3762C51.6376 66.828 51.9472 66.9318 53.9809 66.7242C55.7492 66.5169 56.5009 66.102 57.7387 64.702C59.0209 63.1985 59.242 63.1465 59.242 64.028C59.242 65.4798 60.0819 66.3096 61.5409 66.3096C62.7345 66.3096 63.2651 65.5318 62.2925 65.1687C62.0272 65.0651 61.6735 63.1465 61.4967 60.9169C61.2756 57.3391 61.0988 56.7687 60.2587 56.4058C59.3746 56.0429 59.2861 56.1985 59.0209 58.5836C58.4903 63.1465 55.5724 66.5687 53.4062 65.2207C52.0355 64.3909 51.7261 63.7687 51.7261 61.7465C51.7261 58.9465 53.4503 57.4947 58.9324 55.6798C61.143 54.954 61.4524 54.6947 61.4524 53.554C61.4524 52.5687 61.0988 52.102 59.9051 51.4798C58.1809 50.6502 54.6882 50.5465 53.0524 51.3242Z" fill="white"/>
<path d="M164.065 71.6507C163.446 71.9618 162.872 72.584 162.783 72.9989C162.606 73.6211 163.093 73.6729 165.524 73.3618C169.017 72.9469 169.459 73.7247 166.187 74.5544C163.27 75.2802 162.253 75.9544 162.253 77.1989C162.253 79.0655 164.11 79.4284 171.448 78.8062C171.802 78.7544 171.979 77.7691 171.979 75.6951C171.979 73.0507 171.846 72.4802 171.006 71.8062C169.813 70.8211 165.613 70.7173 164.065 71.6507ZM168.354 76.5247C168.265 77.0951 167.735 77.51 166.983 77.6135C165.524 77.8211 165.392 76.8358 166.806 76.1618C168.265 75.4878 168.531 75.5395 168.354 76.5247Z" fill="white"/>
<path d="M140.368 72.7924C139.749 73.4667 139.263 74.4 139.263 74.8147C139.263 75.9555 141.341 77.6667 143.198 78.0295C146.602 78.7035 147.133 79.2222 145.408 80.3629C144.613 80.8295 144.215 80.7258 143.198 79.8444C142.491 79.2222 141.297 78.7555 140.368 78.7555C139.13 78.7555 138.821 78.9629 138.821 79.7924C138.821 81.5035 141.297 82.9035 144.347 82.9035C147.398 82.9035 148.901 82.1778 149.829 80.2073C150.448 78.9629 150.448 78.7555 149.653 77.7702C149.21 77.148 147.663 76.2667 146.204 75.748C144.701 75.2295 143.463 74.5555 143.331 74.1924C143.065 73.2591 145.232 73.4147 145.895 74.348C146.558 75.3333 149.874 75.4369 149.874 74.4518C149.829 72.5333 147.973 71.4962 144.347 71.4962C141.827 71.4962 141.297 71.6518 140.368 72.7924Z" fill="white"/>
<path d="M156.152 71.9633C155.842 72.1707 154.604 72.2744 153.366 72.1189L151.2 71.8596V77.6669V83.4744L152.88 83.3189C154.427 83.1633 154.516 83.0596 154.648 81.2447C154.781 79.378 154.825 79.378 156.152 79.8447C158.937 80.778 161.766 77.8745 161.103 74.8151C160.573 72.378 157.743 70.7707 156.152 71.9633ZM157.743 75.7484C157.92 77.4596 156.417 78.704 155.356 77.6669C154.03 76.4224 155.002 73.9336 156.726 74.1929C157.301 74.2967 157.655 74.8151 157.743 75.7484Z" fill="white"/>
<path d="M174.543 97.7847C175.781 97.8885 177.903 97.8885 179.185 97.7847C180.423 97.6809 179.406 97.6291 176.842 97.6291C174.278 97.6291 173.261 97.6809 174.543 97.7847Z" fill="white"/>
</svg>
