<svg width="95" height="45" viewBox="0 0 95 45" fill="none" xmlns="http://www.w3.org/2000/svg">
<path d="M24.2667 0.136832C20.16 0.580166 17.6867 1.3035 13.8833 3.14683C10.3367 4.8735 7.65333 6.99683 5.01667 10.1935C1.91333 13.9268 0 18.8968 0 23.1668C0 29.1635 2.70667 34.9968 7.11667 38.6135C8.58667 39.8035 11.1767 41.5068 11.5033 41.5068C11.83 41.5068 11.62 41.3202 8.98333 39.0568C7.37333 37.7035 6.51 36.7235 5.32 34.9268C2.68333 31.0068 1.79667 27.1802 2.28667 22.0002C2.56667 19.1302 3.75667 16.0502 5.69333 13.1568C6.93 11.3135 11.1767 6.74017 11.6433 6.74017C11.76 6.74017 12.5533 6.2735 13.37 5.69017C16.45 3.5435 20.51 2.12017 25.48 1.49017C29.7033 0.930166 33.8333 1.4435 37.8 3.00683C38.4767 3.2635 39.0833 3.45017 39.13 3.38017C39.34 3.17017 36.75 1.84017 35 1.25683C31.7333 0.160166 27.79 -0.236501 24.2667 0.136832Z" fill="white"/>
<path d="M39.3167 9.70337C36.9134 10.0534 30.5667 11.5467 28.7001 12.2C19.0634 15.63 14.2334 19.8534 13.2534 25.7567C13.1367 26.5267 13.0901 27.7867 13.1601 28.5567C13.2767 29.7234 13.2301 29.8867 12.9967 29.49C12.6234 28.86 12.6234 22.8167 13.0201 21.51C13.3467 20.39 13.3934 20.3434 15.1901 19.2C15.9367 18.71 16.7767 17.9167 17.1967 17.2867C18.2701 15.6534 18.4567 13.0867 17.4301 13.9267C17.2667 14.0667 16.5901 14.3467 15.9134 14.5567C13.3001 15.42 12.2501 16.5867 12.2967 18.5934C12.3201 19.3167 12.1801 20.46 11.9934 21.1367C11.7601 21.9534 11.6434 23.47 11.6434 25.6634C11.6434 29.3034 11.6667 29.28 10.3834 26.8067C9.52008 25.1734 8.96008 24.5434 7.88675 23.9834C7.04675 23.5634 4.90008 23.3534 4.90008 23.7034C4.90008 23.82 5.36675 24.38 5.90341 24.9867C6.72008 25.85 7.21008 26.1767 8.35341 26.5034C9.54341 26.8534 9.80008 27.0167 9.91675 27.5067C10.0334 28.02 11.7134 30.8667 13.4167 33.4334C13.7667 33.97 13.4167 33.76 11.7834 32.5467C9.35675 30.7267 9.00675 30.5167 6.74341 29.7C5.11008 29.1167 4.36341 29.1167 5.25008 29.7234C6.13675 30.33 6.79008 31.1234 7.84008 32.8267C8.40008 33.76 9.17008 34.7867 9.52008 35.1134C10.8034 36.3034 14.2101 37.54 16.1467 37.54C17.1034 37.54 17.1967 37.4234 16.7067 36.8634C16.0767 36.1634 14.9334 33.5967 14.5834 32.0567C13.7901 28.6967 14.4901 24.4734 16.1234 22.56L16.7767 21.79V22.84C16.7767 23.4234 16.6834 25.1967 16.5667 26.7834C16.4034 28.93 16.2401 29.7934 15.9601 30.12C15.5867 30.5167 15.6101 30.54 17.1734 30.5167C18.3634 30.5167 18.6434 30.4467 18.2701 30.3067C17.7801 30.12 17.7334 29.9334 17.7334 28.4867C17.7334 25.3367 17.9667 25.0334 19.7401 25.78C20.3467 26.0367 21.0001 26.1067 21.7467 26.0367L22.8667 25.8967L22.7267 27.3434C22.5167 29.7934 22.4001 30.26 21.9801 30.3767C21.7701 30.4467 22.3067 30.4934 23.1701 30.5167C24.6167 30.54 24.7334 30.5167 24.4067 30.1667C23.9867 29.7467 23.9401 28.5567 24.2434 24.6134C24.4067 22.7 24.5467 21.9767 24.8267 21.79C25.4567 21.3 25.2467 21.2067 23.6367 21.2067C22.2601 21.23 22.0967 21.2534 22.4701 21.5334C22.7734 21.7667 22.8667 22.1867 22.8667 23.2367C22.8667 25.1034 22.6567 25.2667 20.6034 25.01C19.7401 24.9167 18.7601 24.8467 18.4567 24.8467C17.9201 24.87 17.9201 24.8467 18.0367 23.3534C18.1067 22.3034 18.2701 21.72 18.5267 21.5334C18.8767 21.3 18.8067 21.23 18.0367 21.0434L17.1501 20.8334L18.4334 19.5734C22.3767 15.6767 29.0734 12.55 37.6834 10.59C41.3001 9.75004 42.1401 9.30671 39.3167 9.70337Z" fill="white"/>
<path d="M71.8666 21.416C71.2833 21.5793 71.2833 21.5793 71.82 21.7193C72.17 21.8127 72.3333 22.046 72.3333 22.4193C72.3566 23.1193 71.33 26.806 71.1433 26.806C71.05 26.806 70.7 26.106 70.3266 25.2193C68.9033 21.8127 68.4366 21.2993 67.2466 21.7893C66.8966 21.9293 66.92 21.976 67.3866 22.1627C67.6666 22.2793 67.97 22.5593 68.0633 22.7693C68.9033 25.2193 69.6266 26.806 70.1166 27.3193C70.4433 27.6693 70.7 28.066 70.7 28.206C70.7 28.7193 69.2533 30.586 68.53 31.0293L67.7833 31.4727H68.6233C69.93 31.4727 70.6533 30.3293 71.7266 26.6893C72.8466 22.886 73.08 22.256 73.57 21.7193L74.0366 21.206L73.2433 21.2293C72.8 21.2527 72.1933 21.3227 71.8666 21.416Z" fill="white"/>
<path d="M62.4866 21.8828C60.5499 22.0461 60.2232 22.1861 60.6432 22.6995C60.9699 23.0728 60.8999 27.3195 60.5732 28.0195C60.4099 28.3928 60.5266 28.4395 61.5299 28.4395C62.8366 28.4395 63.1632 28.2528 62.6032 27.8561C62.2999 27.6228 62.2066 27.0395 62.1132 24.9861L61.9966 22.4195L63.0932 22.2561C65.0999 21.9528 65.7299 22.8861 65.5199 25.9895C65.4499 27.1328 65.3099 27.5761 64.9832 27.8561C64.5632 28.1595 64.6332 28.1828 65.9866 28.2061C67.3399 28.2061 67.8532 27.9495 67.0832 27.6461C66.8032 27.5528 66.7332 27.0861 66.7332 25.5461C66.7332 24.4495 66.6399 23.3061 66.4999 22.9795C66.2899 22.3961 65.1466 21.6495 64.5866 21.7195C64.4232 21.7428 63.4666 21.8128 62.4866 21.8828Z" fill="white"/>
<path d="M55.02 22.8632C53.9233 23.4232 53.4333 24.3565 53.4333 25.8032C53.4333 28.4399 55.6967 29.8165 58.31 28.7665C60.9233 27.7165 61.2267 23.9832 58.8 22.7232C57.8667 22.2332 56.07 22.3032 55.02 22.8632ZM58.4033 23.3065C58.8233 23.6332 59.0567 24.0999 59.1733 24.8465C59.4767 26.9232 58.4267 28.6732 56.8867 28.6732C55.2767 28.6732 54.4833 27.5065 54.6467 25.3365C54.74 24.1699 54.8567 23.8432 55.3933 23.3765C56.21 22.6765 57.5633 22.6532 58.4033 23.3065Z" fill="white"/>
<path d="M36.3533 22.7698C35.21 22.8164 34.3 22.9098 34.3 22.9798C34.3 23.0498 34.4633 23.2831 34.6733 23.4698C34.9766 23.7731 35.0233 24.3098 34.9533 26.3631C34.8833 28.5564 34.8133 28.9298 34.4166 29.2331C33.9966 29.5598 34.0666 29.5831 35.5366 29.6064C37.0066 29.6064 37.5433 29.3731 36.75 29.0464C36.4466 28.9298 36.4 28.4398 36.4466 26.0598L36.5166 23.1898L37.8933 23.1198C39.34 23.0498 39.97 23.3298 39.48 23.8198C38.9433 24.3564 39.1533 24.7298 39.97 24.6598C40.6 24.5898 40.7166 24.4964 40.7866 23.8898C40.9033 23.0264 40.3433 22.5831 39.2233 22.6531C38.7566 22.6764 37.4733 22.7464 36.3533 22.7698Z" fill="white"/>
<path d="M42.6999 22.8401C41.5333 22.9335 41.0899 23.0268 41.3699 23.1668C41.7199 23.3301 41.7666 23.7268 41.7666 26.1301C41.7666 28.5101 41.7199 28.9068 41.3699 29.1168C40.6933 29.4901 41.1599 29.6301 42.5366 29.4668C43.8199 29.3268 43.8433 29.3035 43.5166 28.8135C43.2599 28.4635 43.1666 27.6468 43.1666 25.7101V23.0735H44.4499C46.3866 23.0735 46.6666 23.4701 46.6666 26.0835C46.6666 27.8101 46.5966 28.2301 46.1766 28.7668L45.7099 29.3735H47.1099C48.4399 29.3735 49.1166 29.0935 48.4399 28.8368C48.1833 28.7435 48.0666 28.1135 47.9966 26.4101C47.9499 25.1501 47.8333 23.8901 47.7399 23.5868C47.5533 23.0968 47.5766 23.0735 49.1866 23.0735C51.2399 23.0735 51.3333 23.1901 51.3333 26.1301C51.3333 27.8101 51.2399 28.3701 50.9366 28.7201C50.5866 29.1168 50.6099 29.1401 51.8699 29.1401C52.6166 29.1401 53.1999 29.0235 53.1999 28.9068C53.1999 28.7668 53.1066 28.6735 52.9666 28.6735C52.8266 28.6735 52.7333 27.8568 52.7333 26.7135C52.7333 22.7001 52.6399 22.6068 47.8099 22.6768C45.9666 22.7001 43.6566 22.7701 42.6999 22.8401Z" fill="white"/>
<path d="M27.9999 23.0959C26.7166 23.6093 26.2266 24.5659 26.9499 25.1726C27.1366 25.3126 27.4866 25.3826 27.7666 25.2893C28.1632 25.1726 28.2332 25.0093 28.1166 24.4726C27.9999 23.9593 28.0699 23.7493 28.4432 23.5626C29.0732 23.2126 30.3799 23.2359 30.8932 23.6093C31.5699 24.0993 31.1032 24.5893 29.4232 25.1259C28.5366 25.4059 27.3932 25.9659 26.8566 26.3393C26.0399 26.9459 25.8999 27.1559 25.8999 27.8793C25.8999 28.4859 26.0866 28.8826 26.5999 29.4193C27.2532 30.0726 27.4166 30.1193 28.4899 30.0259C29.4232 29.9326 29.8199 29.7459 30.4732 29.1159C31.1499 28.4393 31.2666 28.4159 31.2666 28.8126C31.2666 29.4659 31.7099 29.8393 32.4799 29.8393C33.1099 29.8393 33.3899 29.4893 32.8766 29.3259C32.7366 29.2793 32.5499 28.4159 32.4566 27.4126C32.3399 25.8026 32.2466 25.5459 31.8032 25.3826C31.3366 25.2193 31.2899 25.2893 31.1499 26.3626C30.8699 28.4159 29.3299 29.9559 28.1866 29.3493C27.4632 28.9759 27.2999 28.6959 27.2999 27.7859C27.2999 26.5259 28.2099 25.8726 31.1032 25.0559C32.2699 24.7293 32.4332 24.6126 32.4332 24.0993C32.4332 23.6559 32.2466 23.4459 31.6166 23.1659C30.7066 22.7926 28.8632 22.7459 27.9999 23.0959Z" fill="white"/>
<path d="M86.59 32.2428C86.2633 32.3828 85.96 32.6628 85.9133 32.8495C85.82 33.1295 86.0766 33.1528 87.36 33.0128C89.2033 32.8261 89.4366 33.1761 87.71 33.5495C86.17 33.8761 85.6333 34.1795 85.6333 34.7395C85.6333 35.5795 86.6133 35.7428 90.4866 35.4628C90.6733 35.4395 90.7666 34.9961 90.7666 34.0628C90.7666 32.8728 90.6966 32.6161 90.2533 32.3128C89.6233 31.8695 87.4066 31.8228 86.59 32.2428ZM88.8533 34.4361C88.8066 34.6928 88.5266 34.8795 88.13 34.9261C87.36 35.0195 87.29 34.5761 88.0366 34.2728C88.8066 33.9695 88.9466 33.9928 88.8533 34.4361Z" fill="white"/>
<path d="M74.0833 32.7566C73.7566 33.06 73.4999 33.48 73.4999 33.6666C73.4999 34.18 74.5966 34.95 75.5766 35.1133C77.3733 35.4166 77.6533 35.65 76.7433 36.1633C76.3233 36.3733 76.1133 36.3266 75.5766 35.93C75.2033 35.65 74.5733 35.44 74.0833 35.44C73.4299 35.44 73.2666 35.5333 73.2666 35.9066C73.2666 36.6766 74.5733 37.3066 76.1833 37.3066C77.7933 37.3066 78.5866 36.98 79.0766 36.0933C79.4033 35.5333 79.4033 35.44 78.9833 34.9966C78.7499 34.7166 77.9333 34.32 77.1633 34.0866C76.3699 33.8533 75.7166 33.55 75.6466 33.3866C75.5066 32.9666 76.6499 33.0366 76.9999 33.4566C77.3499 33.9 79.0999 33.9466 79.0999 33.5033C79.0766 32.64 78.0966 32.1733 76.1833 32.1733C74.8533 32.1733 74.5733 32.2433 74.0833 32.7566Z" fill="white"/>
<path d="M82.4134 32.3835C82.25 32.4768 81.5967 32.5235 80.9434 32.4535L79.8 32.3368V34.9501V37.5635L80.6867 37.4935C81.5034 37.4235 81.55 37.3768 81.62 36.5601C81.69 35.7201 81.7134 35.7201 82.4134 35.9301C83.8834 36.3501 85.3767 35.0435 85.0267 33.6668C84.7467 32.5701 83.2534 31.8468 82.4134 32.3835ZM83.2534 34.0868C83.3467 34.8568 82.5534 35.4168 81.9934 34.9501C81.2934 34.3901 81.8067 33.2701 82.7167 33.3868C83.02 33.4335 83.2067 33.6668 83.2534 34.0868Z" fill="white"/>
<path d="M92.1199 44.0031C92.7732 44.0498 93.8932 44.0498 94.5699 44.0031C95.2232 43.9564 94.6866 43.9331 93.3332 43.9331C91.9799 43.9331 91.4432 43.9564 92.1199 44.0031Z" fill="white"/>
</svg>
