<svg width="150" height="60" viewBox="0 0 150 60" fill="none" xmlns="http://www.w3.org/2000/svg">
<path d="M38.3158 0.182362C31.8316 0.773474 27.9264 1.73792 21.921 4.19569C16.3211 6.49792 12.0842 9.32903 7.92106 13.5913C3.02105 18.569 0 25.1956 0 30.889C0 38.8846 4.27369 46.6623 11.2368 51.4846C13.5579 53.0712 17.6474 55.3423 18.1631 55.3423C18.6789 55.3423 18.3474 55.0935 14.1842 52.0756C11.6421 50.2713 10.2789 48.9646 8.4 46.569C4.23684 41.3423 2.83685 36.2402 3.61053 29.3335C4.05264 25.5069 5.93158 21.4002 8.98947 17.5423C10.9421 15.0846 17.6474 8.98681 18.3842 8.98681C18.5684 8.98681 19.821 8.36459 21.1105 7.58681C25.9737 4.72459 32.3842 2.82681 40.2316 1.98681C46.8999 1.24014 53.421 1.92459 59.6842 4.00903C60.7527 4.35125 61.7105 4.60015 61.7842 4.50681C62.1158 4.22681 58.0263 2.45348 55.2632 1.67569C50.1052 0.213474 43.879 -0.315415 38.3158 0.182362Z" fill="#4E132F"/>
<path d="M62.0791 12.9378C58.2844 13.4045 48.2633 15.3956 45.316 16.2667C30.1002 20.84 22.4739 26.4712 20.9265 34.3423C20.7423 35.3689 20.6687 37.0489 20.7792 38.0756C20.9633 39.6312 20.8897 39.8489 20.5212 39.32C19.9318 38.48 19.9318 30.4223 20.5581 28.68C21.0738 27.1867 21.1476 27.1245 23.9845 25.6C25.1633 24.9467 26.4896 23.8889 27.1528 23.0489C28.8476 20.8712 29.1423 17.4489 27.5213 18.5689C27.2633 18.7556 26.195 19.1289 25.1265 19.4089C21.0003 20.56 19.3424 22.1156 19.4159 24.7912C19.4529 25.7556 19.2318 27.28 18.937 28.1823C18.5687 29.2712 18.3844 31.2933 18.3844 34.2179C18.3844 39.0712 18.4212 39.04 16.3949 35.7423C15.0318 33.5645 14.1476 32.7245 12.4529 31.9779C11.1265 31.4179 7.73706 31.1379 7.73706 31.6045C7.73706 31.76 8.47391 32.5067 9.32127 33.3156C10.6107 34.4667 11.3844 34.9023 13.1897 35.3379C15.0686 35.8045 15.4739 36.0223 15.6581 36.6756C15.8423 37.36 18.4949 41.1556 21.1844 44.5779C21.737 45.2933 21.1844 45.0133 18.6055 43.3956C14.7739 40.9689 14.2213 40.6889 10.6476 39.6C8.06864 38.8223 6.88969 38.8223 8.28969 39.6312C9.6897 40.44 10.7213 41.4979 12.3792 43.7689C13.2634 45.0133 14.4792 46.3823 15.0318 46.8179C17.0581 48.4045 22.4371 50.0533 25.4949 50.0533C27.0055 50.0533 27.1528 49.8979 26.3791 49.1512C25.3844 48.2179 23.5791 44.7956 23.0265 42.7423C21.7739 38.2623 22.8792 32.6312 25.4581 30.08L26.4896 29.0533V30.4533C26.4896 31.2312 26.3423 33.5956 26.158 35.7112C25.9002 38.5733 25.6424 39.7245 25.2003 40.16C24.6107 40.6889 24.6476 40.72 27.116 40.6889C28.9949 40.6889 29.437 40.5956 28.8476 40.4089C28.0739 40.16 28.0002 39.9112 28.0002 37.9823C28.0002 33.7823 28.3686 33.3779 31.1687 34.3733C32.1265 34.7156 33.1582 34.8089 34.337 34.7156L36.1054 34.5289L35.8844 36.4579C35.5528 39.7245 35.3687 40.3467 34.7055 40.5023C34.3739 40.5956 35.2212 40.6579 36.5845 40.6889C38.8686 40.72 39.0528 40.6889 38.537 40.2223C37.8738 39.6623 37.8003 38.0756 38.2792 32.8179C38.537 30.2667 38.758 29.3023 39.2002 29.0533C40.1949 28.4 39.8633 28.2756 37.3212 28.2756C35.1476 28.3067 34.8896 28.3379 35.4792 28.7112C35.9581 29.0223 36.1054 29.5823 36.1054 30.9823C36.1054 33.4712 35.7738 33.6889 32.5318 33.3467C31.1687 33.2223 29.6213 33.1289 29.1423 33.1289C28.295 33.16 28.295 33.1289 28.4791 31.1379C28.5896 29.7379 28.8476 28.96 29.2528 28.7112C29.8054 28.4 29.6949 28.3067 28.4791 28.0579L27.0792 27.7779L29.1055 26.0979C35.3317 20.9023 45.9055 16.7333 59.5002 14.12C65.2108 13.0001 66.5371 12.409 62.0791 12.9378Z" fill="#4E132F"/>
<path d="M113.474 28.5547C112.553 28.7724 112.553 28.7724 113.4 28.9591C113.953 29.0836 114.21 29.3947 114.21 29.8924C114.247 30.8257 112.626 35.7413 112.332 35.7413C112.184 35.7413 111.632 34.808 111.042 33.6257C108.795 29.0836 108.058 28.3991 106.179 29.0524C105.626 29.2391 105.663 29.3013 106.4 29.5503C106.842 29.7057 107.321 30.0791 107.468 30.3591C108.795 33.6257 109.937 35.7413 110.71 36.4257C111.226 36.8924 111.632 37.4213 111.632 37.608C111.632 38.2924 109.347 40.7813 108.205 41.3724L107.026 41.9636H108.353C110.416 41.9636 111.558 40.4391 113.253 35.5857C115.021 30.5147 115.39 29.6747 116.163 28.9591L116.9 28.2747L115.647 28.3057C114.947 28.3369 113.989 28.4303 113.474 28.5547Z" fill="#4E132F"/>
<path d="M98.663 29.1771C95.6051 29.3948 95.0892 29.5815 95.7524 30.266C96.2682 30.7637 96.1577 36.426 95.6419 37.3593C95.384 37.8571 95.5683 37.9193 97.1524 37.9193C99.2157 37.9193 99.7313 37.6704 98.8471 37.1415C98.3682 36.8304 98.2209 36.0527 98.0734 33.3148L97.8893 29.8927L99.6208 29.6748C102.789 29.2704 103.784 30.5148 103.452 34.6527C103.342 36.1771 103.121 36.7681 102.605 37.1415C101.942 37.546 102.052 37.5771 104.189 37.6081C106.326 37.6081 107.137 37.266 105.921 36.8615C105.479 36.7371 105.368 36.1148 105.368 34.0615C105.368 32.5993 105.221 31.0748 105 30.6393C104.668 29.8615 102.863 28.866 101.979 28.9593C101.721 28.9904 100.21 29.0837 98.663 29.1771Z" fill="#4E132F"/>
<path d="M86.8737 30.4843C85.1421 31.2309 84.3684 32.4753 84.3684 34.4043C84.3684 37.9199 87.9422 39.7553 92.0685 38.3553C96.1947 36.9553 96.6738 31.9776 92.8421 30.2976C91.3685 29.6443 88.5316 29.7376 86.8737 30.4843ZM92.2158 31.0753C92.8789 31.5109 93.2475 32.1332 93.4316 33.1287C93.9106 35.8976 92.2527 38.2309 89.8211 38.2309C87.279 38.2309 86.0263 36.6753 86.2843 33.782C86.4316 32.2265 86.6159 31.7909 87.4631 31.1687C88.7527 30.2353 90.8895 30.2043 92.2158 31.0753Z" fill="#4E132F"/>
<path d="M57.3998 30.3597C55.5946 30.4219 54.1578 30.5464 54.1578 30.6397C54.1578 30.7331 54.4156 31.0441 54.7472 31.2931C55.2261 31.6975 55.2998 32.4131 55.1893 35.1508C55.0788 38.0752 54.9683 38.5731 54.3419 38.9775C53.6787 39.4131 53.7893 39.4441 56.1103 39.4752C58.4314 39.4752 59.2788 39.1641 58.0262 38.7285C57.5471 38.5731 57.4736 37.9197 57.5472 34.7464L57.6577 30.9197L59.8314 30.8264C62.1157 30.7331 63.1104 31.1064 62.3367 31.7597C61.4893 32.4752 61.8209 32.9731 63.1104 32.8797C64.1052 32.7864 64.2893 32.6619 64.3998 31.8531C64.584 30.7019 63.6998 30.1108 61.9314 30.2041C61.1945 30.2352 59.1683 30.3285 57.3998 30.3597Z" fill="#4E132F"/>
<path d="M67.4209 30.4535C65.5789 30.578 64.8788 30.7024 65.3209 30.8891C65.8735 31.1068 65.9472 31.6357 65.9472 34.8401C65.9472 38.0135 65.8735 38.5424 65.3209 38.8224C64.2526 39.3201 64.9893 39.5068 67.163 39.2891C69.1893 39.1024 69.2262 39.0713 68.7104 38.418C68.3051 37.9513 68.1578 36.8624 68.1578 34.2801V30.7647H70.184C73.242 30.7647 73.6841 31.2935 73.6841 34.778C73.6841 37.0801 73.5736 37.6401 72.9104 38.3557L72.1735 39.1647H74.384C76.484 39.1647 77.5525 38.7913 76.484 38.4491C76.0789 38.3247 75.8946 37.4847 75.7841 35.2135C75.7104 33.5335 75.5262 31.8535 75.3788 31.4491C75.0841 30.7957 75.1209 30.7647 77.663 30.7647C80.9051 30.7647 81.0526 30.9201 81.0526 34.8401C81.0526 37.0801 80.9051 37.8268 80.4262 38.2935C79.8736 38.8224 79.9104 38.8535 81.8998 38.8535C83.0788 38.8535 83.9998 38.698 83.9998 38.5424C83.9998 38.3557 83.8525 38.2313 83.6315 38.2313C83.4104 38.2313 83.2631 37.1424 83.2631 35.618C83.2631 30.2668 83.1156 30.1424 75.4893 30.2357C72.5788 30.2668 68.9315 30.3601 67.4209 30.4535Z" fill="#4E132F"/>
<path d="M44.2103 30.7945C42.1841 31.4791 41.4104 32.7545 42.5524 33.5635C42.8472 33.7501 43.3998 33.8435 43.842 33.7191C44.4682 33.5635 44.5787 33.3457 44.3946 32.6301C44.2103 31.9457 44.3208 31.6657 44.9103 31.4168C45.905 30.9501 47.9682 30.9812 48.7787 31.4791C49.8472 32.1324 49.1103 32.7857 46.4576 33.5012C45.0577 33.8745 43.2524 34.6212 42.4051 35.1191C41.1156 35.9279 40.8945 36.2079 40.8945 37.1724C40.8945 37.9812 41.1893 38.5101 41.9998 39.2257C43.0313 40.0968 43.2893 40.1591 44.984 40.0345C46.4576 39.9101 47.084 39.6612 48.1155 38.8212C49.184 37.9191 49.3683 37.8879 49.3683 38.4168C49.3683 39.2879 50.0682 39.7857 51.284 39.7857C52.2787 39.7857 52.7208 39.3191 51.9104 39.1012C51.6893 39.0391 51.3945 37.8879 51.2472 36.5501C51.063 34.4035 50.9156 34.0612 50.2155 33.8435C49.4788 33.6257 49.4051 33.7191 49.184 35.1501C48.7419 37.8879 46.3103 39.9412 44.5051 39.1324C43.3629 38.6345 43.1051 38.2612 43.1051 37.0479C43.1051 35.3679 44.5419 34.4968 49.1103 33.4079C50.9524 32.9724 51.2103 32.8168 51.2103 32.1324C51.2103 31.5412 50.9156 31.2612 49.9209 30.8879C48.4841 30.3901 45.5734 30.3279 44.2103 30.7945Z" fill="#4E132F"/>
<path d="M136.721 42.9904C136.205 43.1771 135.726 43.5504 135.653 43.7993C135.505 44.1727 135.91 44.2037 137.937 44.0171C140.847 43.7681 141.216 44.2348 138.489 44.7327C136.058 45.1681 135.21 45.5727 135.21 46.3193C135.21 47.4393 136.758 47.6571 142.874 47.2837C143.168 47.2527 143.316 46.6615 143.316 45.4171C143.316 43.8304 143.205 43.4881 142.505 43.0837C141.51 42.4927 138.01 42.4304 136.721 42.9904ZM140.295 45.9148C140.221 46.2571 139.779 46.506 139.153 46.5681C137.937 46.6927 137.826 46.1015 139.005 45.6971C140.221 45.2927 140.442 45.3237 140.295 45.9148Z" fill="#4E132F"/>
<path d="M116.974 43.6755C116.458 44.08 116.052 44.64 116.052 44.8888C116.052 45.5733 117.784 46.6 119.331 46.8177C122.168 47.2221 122.61 47.5333 121.174 48.2177C120.51 48.4977 120.179 48.4355 119.331 47.9067C118.742 47.5333 117.747 47.2533 116.974 47.2533C115.942 47.2533 115.684 47.3777 115.684 47.8755C115.684 48.9021 117.747 49.7421 120.289 49.7421C122.831 49.7421 124.084 49.3067 124.858 48.1244C125.374 47.3777 125.374 47.2533 124.71 46.6621C124.342 46.2888 123.053 45.76 121.837 45.4488C120.584 45.1377 119.552 44.7333 119.442 44.5155C119.221 43.9555 121.026 44.0488 121.579 44.6088C122.131 45.2 124.895 45.2621 124.895 44.6711C124.858 43.52 123.31 42.8977 120.289 42.8977C118.189 42.8977 117.747 42.9911 116.974 43.6755Z" fill="#4E132F"/>
<path d="M130.126 43.178C129.868 43.3024 128.837 43.3647 127.805 43.2713L126 43.1157V46.6001V50.0847L127.4 49.9913C128.69 49.898 128.763 49.8357 128.874 48.7468C128.984 47.6268 129.021 47.6268 130.126 47.9068C132.447 48.4668 134.805 46.7247 134.253 44.8891C133.811 43.4268 131.453 42.4624 130.126 43.178ZM131.453 45.4491C131.6 46.4757 130.347 47.2224 129.463 46.6001C128.358 45.8535 129.168 44.3601 130.605 44.5157C131.084 44.578 131.379 44.8891 131.453 45.4491Z" fill="#4E132F"/>
<path d="M145.452 58.6708C146.484 58.7331 148.252 58.7331 149.321 58.6708C150.352 58.6085 149.505 58.5775 147.368 58.5775C145.231 58.5775 144.384 58.6085 145.452 58.6708Z" fill="#4E132F"/>
</svg>
